Oswald-regular.ufo
<glyph name="parenleft" format="1">
  <advance width="640"/>
  <unicode hex="0028"/>
  <outline>
    <contour>
      <point x="576" y="-64" type="line"/>
      <point x="137" y="-64"/>
      <point x="128" y="448"/>
      <point x="128" y="896" type="curve" smooth="yes"/>
      <point x="128" y="1345"/>
      <point x="137" y="1856"/>
      <point x="576" y="1856" type="curve"/>
      <point x="576" y="1664" type="line"/>
      <point x="404" y="1664"/>
      <point x="381" y="1390"/>
      <point x="381" y="1143" type="curve" smooth="yes"/>
      <point x="381" y="1052"/>
      <point x="384" y="965"/>
      <point x="384" y="896" type="curve" smooth="yes"/>
      <point x="384" y="826"/>
      <point x="381" y="737"/>
      <point x="381" y="645" type="curve" smooth="yes"/>
      <point x="381" y="399"/>
      <point x="404" y="128"/>
      <point x="576" y="128" type="curve"/>
    </contour>
  </outline>
</glyph>
<glyph name="seven" format="1">
  <advance width="826"/>
  <unicode hex="0037"/>
  <outline>
    <contour>
      <point x="190" y="0" type="line"/>
      <point x="518" y="1579" type="line"/>
      <point x="45" y="1579" type="line"/>
      <point x="45" y="1792" type="line"/>
      <point x="762" y="1792" type="line"/>
      <point x="762" y="1669" type="line"/>
      <point x="436" y="0" type="line"/>
    </contour>
  </outline>
</glyph>
<glyph name="eight" format="1">
  <advance width="1024"/>
  <unicode hex="0038"/>
  <outline>
    <contour>
      <point x="513" y="1063" type="curve" smooth="yes"/>
      <point x="653" y="1063"/>
      <point x="673" y="1204"/>
      <point x="673" y="1344" type="curve" smooth="yes"/>
      <point x="673" y="1474"/>
      <point x="643" y="1600"/>
      <point x="513" y="1600" type="curve" smooth="yes"/>
      <point x="381" y="1600"/>
      <point x="351" y="1476"/>
      <point x="351" y="1344" type="curve" smooth="yes"/>
      <point x="351" y="1204"/>
      <point x="372" y="1063"/>
    </contour>
    <contour>
      <point x="513" y="192" type="curve" smooth="yes"/>
      <point x="685" y="192"/>
      <point x="704" y="342"/>
      <point x="704" y="511" type="curve" smooth="yes"/>
      <point x="704" y="667"/>
      <point x="671" y="818"/>
      <point x="513" y="818" type="curve" smooth="yes"/>
      <point x="354" y="818"/>
      <point x="320" y="668"/>
      <point x="320" y="511" type="curve" smooth="yes"/>
      <point x="320" y="340"/>
      <point x="340" y="192"/>
    </contour>
    <contour>
      <point x="513" y="-18" type="curve" smooth="yes"/>
      <point x="186" y="-18"/>
      <point x="64" y="185"/>
      <point x="64" y="511" type="curve" smooth="yes"/>
      <point x="64" y="736"/>
      <point x="123" y="860"/>
      <point x="258" y="946" type="curve"/>
      <point x="145" y="1031"/>
      <point x="90" y="1150"/>
      <point x="90" y="1344" type="curve" smooth="yes"/>
      <point x="90" y="1632"/>
      <point x="225" y="1810"/>
      <point x="513" y="1810" type="curve" smooth="yes"/>
      <point x="800" y="1810"/>
      <point x="934" y="1631"/>
      <point x="934" y="1344" type="curve" smooth="yes"/>
      <point x="934" y="1150"/>
      <point x="880" y="1031"/>
      <point x="767" y="946" type="curve"/>
      <point x="899" y="859"/>
      <point x="960" y="735"/>
      <point x="960" y="511" type="curve" smooth="yes"/>
      <point x="960" y="185"/>
      <point x="839" y="-18"/>
    </contour>
  </outline>
</glyph>
<glyph name="G" format="1">
  <advance width="1199"/>
  <unicode hex="0047"/>
  <outline>
    <contour>
      <point x="608" y="-18" type="curve" smooth="yes"/>
      <point x="190" y="-18"/>
      <point x="96" y="276"/>
      <point x="96" y="698" type="curve" smooth="yes"/>
      <point x="96" y="1152" type="line" smooth="yes"/>
      <point x="96" y="1537"/>
      <point x="233" y="1810"/>
      <point x="618" y="1810" type="curve" smooth="yes"/>
      <point x="958" y="1810"/>
      <point x="1091" y="1600"/>
      <point x="1104" y="1271" type="curve" smooth="yes"/>
      <point x="1105" y="1253"/>
      <point x="1105" y="1235"/>
      <point x="1105" y="1216" type="curve"/>
      <point x="849" y="1216" type="line"/>
      <point x="849" y="1270" type="line" smooth="yes"/>
      <point x="845" y="1461"/>
      <point x="814" y="1600"/>
      <point x="618" y="1600" type="curve" smooth="yes"/>
      <point x="404" y="1600"/>
      <point x="352" y="1434"/>
      <point x="352" y="1216" type="curve" smooth="yes"/>
      <point x="352" y="640" type="line" smooth="yes"/>
      <point x="352" y="404"/>
      <point x="387" y="192"/>
      <point x="608" y="192" type="curve" smooth="yes"/>
      <point x="828" y="192"/>
      <point x="864" y="406"/>
      <point x="864" y="640" type="curve" smooth="yes"/>
      <point x="864" y="704" type="line"/>
      <point x="608" y="704" type="line"/>
      <point x="608" y="894" type="line"/>
      <point x="1120" y="894" type="line"/>
      <point x="1120" y="0" type="line"/>
      <point x="928" y="0" type="line"/>
      <point x="864" y="192" type="line"/>
      <point x="826" y="86"/>
      <point x="753" y="-18"/>
    </contour>
  </outline>
</glyph>
<glyph name="V" format="1">
  <advance width="1048"/>
  <unicode hex="0056"/>
  <outline>
    <contour>
      <point x="396" y="0" type="line"/>
      <point x="12" y="1792" type="line"/>
      <point x="268" y="1792" type="line"/>
      <point x="457" y="832" type="line"/>
      <point x="523" y="384" type="line"/>
      <point x="591" y="832" type="line"/>
      <point x="780" y="1792" type="line"/>
      <point x="1036" y="1792" type="line"/>
      <point x="652" y="0" type="line"/>
    </contour>
  </outline>
</glyph>
<glyph name="i" format="1">
  <advance width="512"/>
  <unicode hex="0069"/>
  <outline>
    <contour>
      <point x="128" y="1472" type="line"/>
      <point x="128" y="1728" type="line"/>
      <point x="384" y="1728" type="line"/>
      <point x="384" y="1472" type="line"/>
    </contour>
    <contour>
      <point x="128" y="0" type="line"/>
      <point x="128" y="1280" type="line"/>
      <point x="384" y="1280" type="line"/>
      <point x="384" y="0" type="line"/>
    </contour>
  </outline>
</glyph>
<glyph name="u" format="1">
  <advance width="987"/>
  <unicode hex="0075"/>
  <outline>
    <contour>
      <point x="300" y="-18" type="curve" smooth="yes"/>
      <point x="186" y="-18"/>
      <point x="114" y="75"/>
      <point x="114" y="189" type="curve" smooth="yes"/>
      <point x="114" y="1280" type="line"/>
      <point x="370" y="1280" type="line"/>
      <point x="370" y="267" type="line" smooth="yes"/>
      <point x="370" y="214"/>
      <point x="406" y="177"/>
      <point x="458" y="177" type="curve" smooth="yes"/>
      <point x="533" y="177"/>
      <point x="583" y="232"/>
      <point x="626" y="267" type="curve"/>
      <point x="626" y="1280" type="line"/>
      <point x="882" y="1280" type="line"/>
      <point x="882" y="0" type="line"/>
      <point x="626" y="0" type="line"/>
      <point x="626" y="138" type="line"/>
      <point x="535" y="57"/>
      <point x="453" y="-18"/>
    </contour>
  </outline>
</glyph>
<glyph name="x" format="1">
  <advance width="866"/>
  <unicode hex="0078"/>
  <outline>
    <contour>
      <point x="17" y="0" type="line"/>
      <point x="273" y="640" type="line"/>
      <point x="273" y="666" type="line"/>
      <point x="17" y="1280" type="line"/>
      <point x="264" y="1280" type="line"/>
      <point x="435" y="791" type="line"/>
      <point x="606" y="1280" type="line"/>
      <point x="849" y="1280" type="line"/>
      <point x="593" y="666" type="line"/>
      <point x="593" y="640" type="line"/>
      <point x="849" y="0" type="line"/>
      <point x="593" y="0" type="line"/>
      <point x="441" y="493" type="line"/>
      <point x="273" y="0" type="line"/>
    </contour>
  </outline>
</glyph>
<glyph name="z" format="1">
  <advance width="818"/>
  <unicode hex="007A"/>
  <outline>
    <contour>
      <point x="71" y="0" type="line"/>
      <point x="71" y="192" type="line"/>
      <point x="519" y="1088" type="line"/>
      <point x="135" y="1088" type="line"/>
      <point x="135" y="1280" type="line"/>
      <point x="775" y="1280" type="line"/>
      <point x="775" y="1088" type="line"/>
      <point x="327" y="192" type="line"/>
      <point x="775" y="192" type="line"/>
      <point x="775" y="0" type="line"/>
    </contour>
  </outline>
</glyph>
<glyph name="macron" format="1">
  <advance width="640"/>
  <unicode hex="00AF"/>
  <outline>
    <contour>
      <point x="123" y="1407" type="line"/>
      <point x="123" y="1559" type="line"/>
      <point x="557" y="1559" type="line"/>
      <point x="557" y="1407" type="line"/>
    </contour>
  </outline>
</glyph>
<glyph name="Oslash" format="1">
  <advance width="1180"/>
  <unicode hex="00D8"/>
  <outline>
    <contour>
      <point x="590" y="192" type="curve" smooth="yes"/>
      <point x="782" y="192"/>
      <point x="828" y="320"/>
      <point x="828" y="512" type="curve" smooth="yes"/>
      <point x="828" y="1290" type="line" smooth="yes"/>
      <point x="828" y="1368"/>
      <point x="821" y="1433"/>
      <point x="799" y="1484" type="curve"/>
      <point x="463" y="219" type="line"/>
      <point x="496" y="201"/>
      <point x="538" y="192"/>
    </contour>
    <contour>
      <point x="387" y="301" type="curve"/>
      <point x="723" y="1571" type="line"/>
      <point x="689" y="1590"/>
      <point x="646" y="1600"/>
      <point x="590" y="1600" type="curve" smooth="yes"/>
      <point x="398" y="1600"/>
      <point x="352" y="1482"/>
      <point x="352" y="1290" type="curve" smooth="yes"/>
      <point x="352" y="512" type="line" smooth="yes"/>
      <point x="352" y="427"/>
      <point x="361" y="355"/>
    </contour>
    <contour>
      <point x="364" y="-156" type="line"/>
      <point x="274" y="-128" type="line"/>
      <point x="319" y="43" type="line"/>
      <point x="158" y="134"/>
      <point x="96" y="322"/>
      <point x="96" y="576" type="curve" smooth="yes"/>
      <point x="96" y="1226" type="line" smooth="yes"/>
      <point x="96" y="1591"/>
      <point x="223" y="1810"/>
      <point x="590" y="1810" type="curve" smooth="yes"/>
      <point x="662" y="1810"/>
      <point x="725" y="1802"/>
      <point x="779" y="1785" type="curve"/>
      <point x="821" y="1944" type="line"/>
      <point x="914" y="1920" type="line"/>
      <point x="868" y="1746" type="line"/>
      <point x="1023" y="1655"/>
      <point x="1084" y="1472"/>
      <point x="1084" y="1226" type="curve" smooth="yes"/>
      <point x="1084" y="576" type="line" smooth="yes"/>
      <point x="1084" y="216"/>
      <point x="954" y="-18"/>
      <point x="590" y="-18" type="curve" smooth="yes"/>
      <point x="521" y="-18"/>
      <point x="460" y="-10"/>
      <point x="407" y="6" type="curve"/>
    </contour>
  </outline>
</glyph>
<glyph name="divide" format="1">
  <advance width="640"/>
  <unicode hex="00F7"/>
  <outline>
    <contour>
      <point x="192" y="879" type="line"/>
      <point x="192" y="1135" type="line"/>
      <point x="448" y="1135" type="line"/>
      <point x="448" y="879" type="line"/>
    </contour>
    <contour>
      <point x="0" y="576" type="line"/>
      <point x="0" y="768" type="line"/>
      <point x="640" y="768" type="line"/>
      <point x="640" y="576" type="line"/>
    </contour>
    <contour>
      <point x="192" y="233" type="line"/>
      <point x="192" y="489" type="line"/>
      <point x="448" y="489" type="line"/>
      <point x="448" y="233" type="line"/>
    </contour>
  </outline>
</glyph>
<glyph name="thorn" format="1">
  <advance width="1056"/>
  <unicode hex="00FE"/>
  <outline>
    <contour>
      <point x="576" y="192" type="curve" smooth="yes"/>
      <point x="691" y="192"/>
      <point x="706" y="378"/>
      <point x="706" y="546" type="curve" smooth="yes"/>
      <point x="706" y="823" type="line" smooth="yes"/>
      <point x="706" y="954"/>
      <point x="692" y="1088"/>
      <point x="576" y="1088" type="curve" smooth="yes"/>
      <point x="505" y="1088"/>
      <point x="431" y="1065"/>
      <point x="384" y="1037" type="curve"/>
      <point x="384" y="232" type="line"/>
      <point x="441" y="209"/>
      <point x="510" y="192"/>
    </contour>
    <contour>
      <point x="128" y="-410" type="line"/>
      <point x="128" y="1791" type="line"/>
      <point x="384" y="1791" type="line"/>
      <point x="384" y="1153" type="line"/>
      <point x="453" y="1226"/>
      <point x="518" y="1298"/>
      <point x="644" y="1298" type="curve" smooth="yes"/>
      <point x="957" y="1298"/>
      <point x="960" y="926"/>
      <point x="960" y="594" type="curve" smooth="yes"/>
      <point x="960" y="327"/>
      <point x="902" y="-18"/>
      <point x="640" y="-18" type="curve" smooth="yes"/>
      <point x="523" y="-18"/>
      <point x="443" y="55"/>
      <point x="384" y="116" type="curve"/>
      <point x="384" y="-410" type="line"/>
    </contour>
  </outline>
</glyph>
<glyph name="gcommaaccent" format="1">
  <advance width="973"/>
  <unicode hex="0123"/>
  <outline>
    <contour>
      <point x="481" y="560" type="curve" smooth="yes"/>
      <point x="612" y="560"/>
      <point x="641" y="701"/>
      <point x="641" y="832" type="curve" smooth="yes"/>
      <point x="641" y="964"/>
      <point x="611" y="1120"/>
      <point x="481" y="1120" type="curve" smooth="yes"/>
      <point x="349" y="1120"/>
      <point x="321" y="964"/>
      <point x="321" y="832" type="curve" smooth="yes"/>
      <point x="321" y="701"/>
      <point x="351" y="560"/>
    </contour>
    <contour>
      <point x="371" y="1377" type="line"/>
      <point x="371" y="1618"/>
      <point x="330" y="1889"/>
      <point x="563" y="1889" type="curve"/>
      <point x="627" y="1761" type="line"/>
      <point x="534" y="1761"/>
      <point x="499" y="1722"/>
      <point x="499" y="1633" type="curve"/>
      <point x="627" y="1633" type="line"/>
      <point x="627" y="1377" type="line"/>
    </contour>
    <contour>
      <point x="545" y="-194" type="curve" smooth="yes"/>
      <point x="636" y="-194"/>
      <point x="769" y="-188"/>
      <point x="769" y="-99" type="curve" smooth="yes"/>
      <point x="769" y="-88"/>
      <point x="768" y="-77"/>
      <point x="765" y="-66" type="curve"/>
      <point x="756" y="-16"/>
      <point x="689" y="17"/>
      <point x="564" y="32" type="curve" smooth="yes"/>
      <point x="353" y="57" type="line"/>
      <point x="305" y="22"/>
      <point x="259" y="-54"/>
      <point x="259" y="-135" type="curve" smooth="yes"/>
      <point x="259" y="-211"/>
      <point x="466" y="-194"/>
    </contour>
    <contour>
      <point x="545" y="-383" type="curve" smooth="yes"/>
      <point x="354" y="-383"/>
      <point x="33" y="-381"/>
      <point x="33" y="-195" type="curve" smooth="yes"/>
      <point x="33" y="-51"/>
      <point x="125" y="39"/>
      <point x="225" y="89" type="curve"/>
      <point x="166" y="105"/>
      <point x="97" y="141"/>
      <point x="97" y="201" type="curve" smooth="yes"/>
      <point x="97" y="297"/>
      <point x="180" y="391"/>
      <point x="225" y="448" type="curve"/>
      <point x="146" y="542"/>
      <point x="97" y="672"/>
      <point x="97" y="832" type="curve" smooth="yes"/>
      <point x="97" y="1094"/>
      <point x="227" y="1298"/>
      <point x="481" y="1298" type="curve" smooth="yes"/>
      <point x="628" y="1298"/>
      <point x="698" y="1238"/>
      <point x="757" y="1147" type="curve"/>
      <point x="799" y="1225"/>
      <point x="872" y="1298"/>
      <point x="993" y="1298" type="curve"/>
      <point x="993" y="1088" type="line"/>
      <point x="920" y="1088"/>
      <point x="869" y="1060"/>
      <point x="833" y="1024" type="curve"/>
      <point x="850" y="974"/>
      <point x="865" y="907"/>
      <point x="865" y="832" type="curve" smooth="yes"/>
      <point x="865" y="570"/>
      <point x="742" y="368"/>
      <point x="481" y="368" type="curve" smooth="yes"/>
      <point x="453" y="368"/>
      <point x="425" y="371"/>
      <point x="400" y="375" type="curve"/>
      <point x="352" y="375" type="line"/>
      <point x="340" y="353"/>
      <point x="317" y="332"/>
      <point x="317" y="301" type="curve" smooth="yes"/>
      <point x="317" y="131"/>
      <point x="993" y="295"/>
      <point x="993" y="-64" type="curve" smooth="yes"/>
      <point x="993" y="-303"/>
      <point x="780" y="-383"/>
    </contour>
  </outline>
</glyph>
<glyph name="Zdotaccent" format="1">
  <advance width="951"/>
  <unicode hex="017B"/>
  <outline>
    <component base="Z"/>
    <contour>
      <point x="350" y="1912" type="line"/>
      <point x="350" y="2168" type="line"/>
      <point x="606" y="2168" type="line"/>
      <point x="606" y="1912" type="line"/>
    </contour>
  </outline>
</glyph>
<glyph name="dotaccent" format="1">
  <advance width="384"/>
  <unicode hex="02D9"/>
  <outline>
    <contour>
      <point x="64" y="1446" type="line"/>
      <point x="64" y="1702" type="line"/>
      <point x="320" y="1702" type="line"/>
      <point x="320" y="1446" type="line"/>
    </contour>
  </outline>
</glyph>
<glyph name="ring" format="1">
  <advance width="640"/>
  <unicode hex="02DA"/>
  <outline>
    <contour>
      <point x="320" y="1408" type="curve" smooth="yes"/>
      <point x="163" y="1408"/>
      <point x="64" y="1510"/>
      <point x="64" y="1664" type="curve" smooth="yes"/>
      <point x="64" y="1818"/>
      <point x="164" y="1920"/>
      <point x="320" y="1920" type="curve" smooth="yes"/>
      <point x="477" y="1920"/>
      <point x="576" y="1818"/>
      <point x="576" y="1664" type="curve" smooth="yes"/>
      <point x="576" y="1510"/>
      <point x="476" y="1408"/>
    </contour>
    <contour>
      <point x="320" y="1536" type="curve" smooth="yes"/>
      <point x="400" y="1536"/>
      <point x="448" y="1585"/>
      <point x="448" y="1664" type="curve" smooth="yes"/>
      <point x="448" y="1743"/>
      <point x="400" y="1792"/>
      <point x="320" y="1792" type="curve" smooth="yes"/>
      <point x="239" y="1792"/>
      <point x="192" y="1743"/>
      <point x="192" y="1664" type="curve" smooth="yes"/>
      <point x="192" y="1585"/>
      <point x="239" y="1536"/>
    </contour>
  </outline>
</glyph>
<glyph name="hungarumlaut" format="1">
  <advance width="640"/>
  <unicode hex="02DD"/>
  <outline>
    <contour>
      <point x="512" y="1408" type="line"/>
      <point x="640" y="1792" type="line"/>
      <point x="896" y="1792" type="line"/>
      <point x="640" y="1408" type="line"/>
    </contour>
    <contour>
      <point x="218" y="1408" type="line"/>
      <point x="306" y="1792" type="line"/>
      <point x="512" y="1792" type="line"/>
      <point x="346" y="1408" type="line"/>
    </contour>
  </outline>
</glyph>
<glyph name="quoteleft" format="1">
  <advance width="512"/>
  <unicode hex="2018"/>
  <outline>
    <contour>
      <point x="128" y="1280" type="line"/>
      <point x="128" y="1343"/>
      <point x="125" y="1408"/>
      <point x="125" y="1469" type="curve" smooth="yes"/>
      <point x="125" y="1644"/>
      <point x="148" y="1792"/>
      <point x="320" y="1792" type="curve"/>
      <point x="384" y="1664" type="line"/>
      <point x="291" y="1664"/>
      <point x="256" y="1625"/>
      <point x="256" y="1536" type="curve"/>
      <point x="384" y="1536" type="line"/>
      <point x="384" y="1280" type="line"/>
    </contour>
  </outline>
</glyph>
<glyph name="quoteright" format="1">
  <advance width="512"/>
  <unicode hex="2019"/>
  <outline>
    <contour>
      <point x="192" y="-256" type="curve"/>
      <point x="128" y="-128" type="line"/>
      <point x="221" y="-128"/>
      <point x="256" y="-89"/>
      <point x="256" y="-0" type="curve"/>
      <point x="128" y="-0" type="line"/>
      <point x="128" y="256" type="line"/>
      <point x="384" y="256" type="line"/>
      <point x="384" y="160"/>
      <point x="383" y="79"/>
      <point x="381" y="14" type="curve" smooth="yes"/>
      <point x="376" y="-148"/>
      <point x="354" y="-256"/>
    </contour>
  </outline>
</glyph>
<glyph name="daggerdbl" format="1">
  <advance width="850"/>
  <unicode hex="2021"/>
  <outline>
    <contour>
      <point x="300" y="0" type="line"/>
      <point x="300" y="500" type="line"/>
      <point x="100" y="500" type="line"/>
      <point x="100" y="700" type="line"/>
      <point x="300" y="700" type="line"/>
      <point x="300" y="1050" type="line"/>
      <point x="100" y="1050" type="line"/>
      <point x="100" y="1250" type="line"/>
      <point x="300" y="1250" type="line"/>
      <point x="300" y="1536" type="line"/>
      <point x="550" y="1536" type="line"/>
      <point x="550" y="1250" type="line"/>
      <point x="751" y="1250" type="line"/>
      <point x="751" y="1050" type="line"/>
      <point x="550" y="1050" type="line"/>
      <point x="550" y="700" type="line"/>
      <point x="751" y="700" type="line"/>
      <point x="751" y="500" type="line"/>
      <point x="550" y="500" type="line"/>
      <point x="550" y="0" type="line"/>
    </contour>
  </outline>
</glyph>
<glyph name="bullet" format="1">
  <advance width="960"/>
  <unicode hex="2022"/>
  <outline>
    <contour>
      <point x="486" y="595" type="curve" smooth="yes"/>
      <point x="317" y="595"/>
      <point x="221" y="724"/>
      <point x="221" y="891" type="curve" smooth="yes"/>
      <point x="221" y="1059"/>
      <point x="317" y="1187"/>
      <point x="486" y="1187" type="curve" smooth="yes"/>
      <point x="655" y="1187"/>
      <point x="751" y="1058"/>
      <point x="751" y="891" type="curve" smooth="yes"/>
      <point x="751" y="723"/>
      <point x="655" y="595"/>
    </contour>
  </outline>
</glyph>
<glyph name="Euro" format="1">
  <advance width="971"/>
  <unicode hex="20AC"/>
  <outline>
    <contour>
      <point x="494" y="-27" type="curve" smooth="yes"/>
      <point x="169" y="-27"/>
      <point x="78" y="194"/>
      <point x="68" y="508" type="curve"/>
      <point x="0" y="508" type="line"/>
      <point x="0" y="674" type="line"/>
      <point x="68" y="674" type="line"/>
      <point x="68" y="827" type="line"/>
      <point x="0" y="827" type="line"/>
      <point x="0" y="993" type="line"/>
      <point x="70" y="993" type="line"/>
      <point x="80" y="1305"/>
      <point x="166" y="1536"/>
      <point x="487" y="1536" type="curve" smooth="yes"/>
      <point x="799" y="1536"/>
      <point x="900" y="1325"/>
      <point x="903" y="1018" type="curve"/>
      <point x="653" y="1018" type="line"/>
      <point x="653" y="1162"/>
      <point x="623" y="1309"/>
      <point x="492" y="1309" type="curve" smooth="yes"/>
      <point x="326" y="1309"/>
      <point x="324" y="1160"/>
      <point x="322" y="993" type="curve"/>
      <point x="518" y="993" type="line"/>
      <point x="518" y="827" type="line"/>
      <point x="322" y="827" type="line"/>
      <point x="322" y="674" type="line"/>
      <point x="518" y="674" type="line"/>
      <point x="518" y="508" type="line"/>
      <point x="324" y="508" type="line"/>
      <point x="331" y="351"/>
      <point x="343" y="205"/>
      <point x="499" y="205" type="curve" smooth="yes"/>
      <point x="647" y="205"/>
      <point x="662" y="386"/>
      <point x="662" y="541" type="curve"/>
      <point x="909" y="541" type="line"/>
      <point x="909" y="218"/>
      <point x="819" y="-27"/>
    </contour>
  </outline>
</glyph>
<glyph name="trademark" format="1">
  <advance width="2204"/>
  <unicode hex="2122"/>
  <outline>
    <contour>
      <point x="315" y="686" type="line"/>
      <point x="315" y="1364" type="line"/>
      <point x="152" y="1364" type="line"/>
      <point x="152" y="1518" type="line"/>
      <point x="649" y="1518" type="line"/>
      <point x="649" y="1364" type="line"/>
      <point x="485" y="1364" type="line"/>
      <point x="485" y="686" type="line"/>
    </contour>
    <contour>
      <point x="741" y="686" type="line"/>
      <point x="741" y="1518" type="line"/>
      <point x="983" y="1518" type="line"/>
      <point x="1087" y="1065" type="line"/>
      <point x="1194" y="1518" type="line"/>
      <point x="1436" y="1518" type="line"/>
      <point x="1436" y="686" type="line"/>
      <point x="1276" y="686" type="line"/>
      <point x="1276" y="1241" type="line"/>
      <point x="1139" y="686" type="line"/>
      <point x="1036" y="686" type="line"/>
      <point x="899" y="1241" type="line"/>
      <point x="899" y="686" type="line"/>
    </contour>
  </outline>
</glyph>
